<?xml version="1.0" encoding="UTF-8"?>
<svg xmlns="http://www.w3.org/2000/svg" xmlns:xlink="http://www.w3.org/1999/xlink" width="400px" height="85px" viewBox="0 0 398 85" version="1.1">
<g id="surface1">
<path style=" stroke:none;fill-rule:nonzero;fill:rgb(0%,0%,0%);fill-opacity:1;" d="M 346.09375 13.945312 C 338.632812 21.050781 332.328125 26.828125 332.132812 26.796875 C 331.898438 26.761719 328.417969 23.742188 324.335938 20.085938 C 320.289062 16.4375 316.441406 13.046875 315.8125 12.515625 L 314.652344 11.621094 L 302.777344 11.621094 C 296.246094 11.621094 290.839844 11.753906 290.738281 11.921875 C 290.574219 12.152344 305.199219 26.628906 309.3125 30.3125 L 310.707031 31.542969 L 318.367188 31.578125 C 322.578125 31.609375 326.027344 31.710938 326.027344 31.808594 C 326.027344 31.941406 316.839844 40.671875 305.628906 51.234375 C 294.421875 61.824219 285.234375 70.589844 285.234375 70.757812 C 285.234375 70.921875 291.867188 71.054688 301.285156 71.054688 L 317.339844 71.054688 L 325.035156 63.1875 L 332.695312 55.28125 L 346.855469 69.625 L 361.019531 84.003906 L 379.027344 84.003906 C 388.914062 84.003906 397.003906 83.871094 397.003906 83.738281 C 397.003906 83.570312 393.6875 80.617188 389.640625 77.132812 C 385.5625 73.644531 376.308594 65.710938 369.011719 59.46875 L 355.8125 48.144531 L 347.71875 48.144531 C 343.273438 48.144531 339.625 48.046875 339.625 47.914062 C 339.625 47.78125 341.980469 45.289062 344.867188 42.367188 C 347.753906 39.414062 352.859375 34.164062 356.210938 30.710938 C 359.59375 27.226562 367.320312 19.289062 373.390625 13.082031 C 379.425781 6.839844 384.402344 1.5625 384.402344 1.359375 C 384.402344 1.09375 380.851562 0.996094 372.0625 0.996094 L 359.691406 1.03125 Z M 346.09375 13.945312 "/>
<path style=" stroke:none;fill-rule:nonzero;fill:rgb(0%,0%,0%);fill-opacity:1;" d="M 234.621094 21.050781 C 232.828125 21.882812 231.503906 23.34375 230.875 25.203125 C 230.609375 26 230.507812 31.542969 230.507812 43.53125 L 230.507812 60.761719 L 239.464844 60.761719 L 239.464844 45.851562 C 239.464844 37.652344 239.5625 30.710938 239.664062 30.414062 C 239.761719 30.117188 240.226562 29.882812 240.65625 29.882812 C 241.652344 29.882812 241.75 30.046875 252.398438 46.1875 C 257.308594 53.65625 261.023438 58.96875 261.617188 59.398438 C 265.664062 62.289062 272.164062 62.488281 275.316406 59.867188 C 277.636719 57.90625 277.605469 58.273438 277.605469 38.75 L 277.605469 21.25 L 268.648438 21.25 L 268.648438 36.324219 C 268.648438 52.359375 268.648438 52.359375 267.089844 52.0625 C 266.726562 51.996094 262.714844 46.285156 256.84375 37.519531 C 249.945312 27.160156 246.828125 22.8125 245.929688 22.179688 C 243.113281 20.121094 237.738281 19.589844 234.621094 21.050781 Z M 234.621094 21.050781 "/>
<path style=" stroke:none;fill-rule:nonzero;fill:rgb(0%,0%,0%);fill-opacity:1;" d="M 9.519531 21.617188 C 7.660156 22.046875 5.273438 23.375 4.078125 24.636719 C 3.484375 25.234375 2.585938 26.628906 2.089844 27.726562 C 1.261719 29.515625 1.160156 30.082031 1.160156 33.203125 C 1.160156 36.492188 1.226562 36.855469 2.253906 38.914062 C 3.484375 41.40625 4.644531 42.566406 7.296875 43.796875 L 9.121094 44.65625 L 20.5625 44.824219 C 30.945312 44.992188 32.136719 45.054688 32.96875 45.585938 C 35.457031 47.25 35.058594 51.101562 32.269531 52.164062 C 31.808594 52.328125 25.105469 52.460938 16.714844 52.460938 L 1.988281 52.460938 L 1.988281 60.796875 L 18.339844 60.695312 C 34.0625 60.59375 34.726562 60.5625 36.351562 59.898438 C 37.28125 59.5 38.605469 58.769531 39.269531 58.238281 C 41.824219 56.210938 43.78125 52.195312 43.78125 48.976562 C 43.78125 45.390625 41.589844 41.335938 38.640625 39.34375 C 35.652344 37.386719 34.261719 37.1875 23.148438 37.1875 C 12.207031 37.1875 11.410156 37.054688 10.480469 35.226562 C 9.816406 33.96875 9.816406 33.101562 10.449219 31.875 C 11.507812 29.816406 11.011719 29.882812 27.097656 29.882812 L 41.789062 29.882812 L 41.789062 21.25 L 26.300781 21.28125 C 17.746094 21.316406 10.214844 21.449219 9.519531 21.617188 Z M 9.519531 21.617188 "/>
<path style=" stroke:none;fill-rule:nonzero;fill:rgb(0%,0%,0%);fill-opacity:1;" d="M 62.683594 21.78125 C 55.519531 23.308594 49.453125 29.285156 47.726562 36.523438 C 47.128906 38.945312 47.195312 43.496094 47.859375 46.054688 C 49.21875 51.265625 53.363281 56.34375 58.074219 58.601562 C 62.21875 60.5625 63.8125 60.761719 76.21875 60.761719 L 87.226562 60.761719 L 87.226562 52.492188 L 76.382812 52.394531 L 65.503906 52.296875 L 63.648438 51.429688 C 61.027344 50.203125 59.234375 48.445312 57.976562 45.886719 C 57.011719 43.960938 56.878906 43.363281 56.878906 41.007812 C 56.878906 38.847656 57.046875 38.015625 57.742188 36.523438 C 58.871094 34.132812 60.960938 32.007812 63.28125 30.945312 L 65.171875 30.046875 L 87.0625 29.71875 L 87.160156 25.46875 L 87.261719 21.25 L 76.050781 21.28125 C 67.792969 21.316406 64.277344 21.449219 62.683594 21.78125 Z M 62.683594 21.78125 "/>
<path style=" stroke:none;fill-rule:nonzero;fill:rgb(0%,0%,0%);fill-opacity:1;" d="M 95.1875 21.847656 C 94.558594 22.148438 93.761719 22.945312 93.363281 23.574219 C 92.734375 24.703125 92.699219 25.234375 92.699219 42.664062 L 92.699219 60.59375 L 97.113281 60.695312 L 101.488281 60.796875 L 101.488281 45.789062 L 112.367188 45.886719 C 120.496094 45.953125 123.414062 46.085938 124.078125 46.417969 C 125.703125 47.28125 125.867188 47.878906 126.035156 54.453125 L 126.199219 60.59375 L 130.609375 60.695312 L 135.054688 60.796875 L 134.890625 53.554688 C 134.824219 49.140625 134.589844 45.820312 134.359375 45.023438 C 134.125 44.328125 133.296875 43.132812 132.535156 42.335938 L 131.109375 40.9375 L 132.535156 39.445312 C 134.988281 36.820312 135.71875 32.207031 134.257812 28.320312 C 133.199219 25.398438 130.476562 22.84375 127.558594 21.945312 C 125.402344 21.28125 124.574219 21.25 110.808594 21.25 C 97.710938 21.25 96.25 21.316406 95.1875 21.847656 Z M 123.710938 30.148438 C 124.972656 30.8125 126.035156 32.539062 126.035156 33.867188 C 126.035156 34.960938 124.972656 36.65625 123.8125 37.421875 C 123.015625 37.953125 121.855469 38.015625 112.367188 38.117188 L 101.820312 38.21875 L 101.820312 34.101562 C 101.820312 31.84375 101.921875 29.882812 102.054688 29.78125 C 102.152344 29.648438 106.828125 29.550781 112.402344 29.550781 C 121.621094 29.550781 122.683594 29.617188 123.710938 30.148438 Z M 123.710938 30.148438 "/>
<path style=" stroke:none;fill-rule:nonzero;fill:rgb(0%,0%,0%);fill-opacity:1;" d="M 142.75 21.882812 C 140.261719 23.007812 140.296875 22.710938 140.296875 40.804688 C 140.296875 59.070312 140.296875 59 142.75 60.132812 C 144.007812 60.695312 145.269531 60.761719 162.117188 60.761719 L 180.09375 60.761719 L 180.09375 52.460938 L 165.070312 52.460938 C 153.828125 52.460938 149.945312 52.359375 149.648438 52.0625 C 149.382812 51.796875 149.25 50.46875 149.25 48.242188 L 149.25 44.824219 L 179.761719 44.824219 L 179.761719 37.1875 L 149.25 37.1875 L 149.25 34.066406 C 149.25 32.339844 149.347656 30.710938 149.449219 30.414062 C 149.613281 29.949219 151.304688 29.882812 164.871094 29.882812 L 180.09375 29.882812 L 180.09375 21.25 L 162.117188 21.25 C 145.304688 21.25 144.007812 21.316406 142.75 21.882812 Z M 142.75 21.882812 "/>
<path style=" stroke:none;fill-rule:nonzero;fill:rgb(0%,0%,0%);fill-opacity:1;" d="M 187.757812 21.847656 C 187.125 22.179688 186.332031 22.976562 186 23.609375 C 185.433594 24.636719 185.402344 25.867188 185.402344 41.007812 C 185.402344 59.203125 185.367188 58.902344 187.722656 60.164062 C 188.785156 60.726562 190.046875 60.761719 206.859375 60.761719 L 224.871094 60.761719 L 224.871094 52.460938 L 209.710938 52.394531 L 194.523438 52.296875 L 194.421875 48.542969 L 194.324219 44.824219 L 224.871094 44.824219 L 224.871094 37.1875 L 194.324219 37.1875 L 194.421875 33.601562 L 194.523438 30.046875 L 209.710938 29.949219 L 224.871094 29.882812 L 224.871094 21.25 L 206.859375 21.25 C 190.078125 21.25 188.785156 21.28125 187.757812 21.847656 Z M 187.757812 21.847656 "/>
</g>
</svg>
