<?xml version="1.0" encoding="UTF-8" standalone="no"?>
<!-- Created with Inkscape (http://www.inkscape.org/) -->

<svg
   xmlns:dc="http://purl.org/dc/elements/1.1/"
   xmlns:cc="http://creativecommons.org/ns#"
   xmlns:rdf="http://www.w3.org/1999/02/22-rdf-syntax-ns#"
   xmlns:svg="http://www.w3.org/2000/svg"
   xmlns="http://www.w3.org/2000/svg"
   version="1.1"
   width="300"
   height="90.634361"
   viewBox="0 0 300 90.634363"
   id="svg12339">
  <defs
     id="defs12341" />
  <metadata
     id="metadata12344">
    <rdf:RDF>
      <cc:Work
         rdf:about="">
        <dc:format>image/svg+xml</dc:format>
        <dc:type
           rdf:resource="http://purl.org/dc/dcmitype/StillImage" />
        <dc:title></dc:title>
      </cc:Work>
    </rdf:RDF>
  </metadata>
  <g
     transform="translate(-139.7288,-347.77531)"
     id="layer1">
    <g
       transform="matrix(0.81211647,0,0,0.81211647,167.00705,38.8499)"
       id="g12310">
      <path
         d="m 188.03054,380.4104 c -28.53875,0.62375 -45.52125,24.66375 -45.52125,24.66375 l 3.495,0 c 9.425,-11.59625 23.86375,-20.00875 39.96375,-20.00875 28.375,0 51.93625,22.12 51.93625,50.5025 0,28.3875 -23.56125,52.285 -51.93625,52.285 -15.96375,0 -30.09625,-7.1325 -39.51625,-18.55625 l -3.985,0.002 2.00875,2.06625 c 10.13875,12.28375 25.43125,19.17125 42.56,20.4825 31.33875,2.39625 57.4775,-24.11125 57.14875,-55.97375 -0.32875,-31.52875 -24.50625,-56.16125 -56.15375,-55.46375"
         id="path7653"
         style="fill:#0573ac;fill-opacity:1;fill-rule:nonzero;stroke:none" />
      <path
         d="m 173.35141,469.43215 c -1.22875,0.05 -9.07375,-0.265 -9.07375,-0.265 4.46,2.465 9.015,3.445 14.69375,3.84625 21.6675,1.5325 38.30875,-15.98625 37.58625,-37.13875 -0.70625,-20.67375 -17.20125,-35.17625 -37.43375,-34.485 -6.915,0.2325 -10.59625,1.6275 -15.09,3.71375 0,0 4.40375,-0.0713 6.22625,-0.1025 18.66375,-0.2975 36.26375,9.20375 36.20875,30.9325 -0.0575,20.3025 -11.48125,32.64625 -33.1175,33.49875"
         id="path7657"
         style="fill:#0573ac;fill-opacity:1;fill-rule:nonzero;stroke:none" />
      <path
         d="m 130.32053,449.36128 -19.8175,0 0,-33.79375 -10.27375,0 0,43.11125 33.1175,0 -3.02625,-9.3175 z"
         id="path7661"
         style="fill:#0573ac;fill-opacity:1;fill-rule:nonzero;stroke:none" />
      <path
         d="m 168.66379,458.67978 -19.29625,0 0,-43.16125 19.29625,0 c 6.64875,-0.0138 12.49625,2.34375 16.585,6.32 4.10375,3.9525 6.39625,9.45625 6.38875,15.26125 0.007,5.80375 -2.285,11.30875 -6.38875,15.26125 -4.07875,3.96375 -9.90125,6.31875 -16.52375,6.31875 l -0.0613,0 z m -0.0413,-9.38125 c 4.545,-0.0163 7.8375,-1.51 10.0975,-3.685 2.24875,-2.18625 3.51625,-5.12625 3.52375,-8.51375 -0.007,-3.38625 -1.275,-6.32625 -3.52375,-8.5175 -2.26,-2.17375 -5.5525,-3.66625 -10.0975,-3.68 l -9.865,0 0,24.39625 9.865,0"
         id="path7665"
         style="fill:#0573ac;fill-opacity:1;fill-rule:nonzero;stroke:none" />
      <path
         d="m 17.657285,413.9404 c -12.7575,10e-4 -23.09,10.34125 -23.09375,23.10375 0.00375,12.76 10.33625,23.095 23.09375,23.1 8.43875,-0.001 15.84,-4.53375 19.855,-11.29375 l -7.165,-4.27125 c -2.5875,4.3275 -7.29,7.2225 -12.69,7.2225 -6.69625,-0.0163 -12.3425,-4.47125 -14.14875,-10.5875 l 37.24625,0 0,-4.17 c -0.0025,-12.7625 -10.34,-23.1025 -23.0975,-23.10375 m -14.14875,18.92875 c 1.80625,-6.11375 7.4525,-10.5725 14.14875,-10.58375 6.6975,0.0113 12.345,4.47 14.15125,10.58375 l -28.3,0"
         id="path7669"
         style="fill:#0573ac;fill-opacity:1;fill-rule:nonzero;stroke:none" />
      <path
         d="m 45.694035,437.2449 c 0.0025,12.76 10.3375,23.09875 23.095,23.1025 5.61,0 10.75125,-2 14.7525,-5.33 l 0,3.6625 8.96125,0 0,-42.8725 -8.96125,0 0,3.66375 c -4.00125,-3.32625 -9.1425,-5.3275 -14.7525,-5.3275 -12.7575,0.004 -23.0925,10.34125 -23.095,23.10125 m 8.3425,0 c 0.01375,-8.14875 6.605,-14.74125 14.7525,-14.75625 8.14375,0.015 14.73875,6.6075 14.7525,14.75625 -0.01375,8.145 -6.60875,14.74375 -14.7525,14.75875 -8.1475,-0.015 -14.73875,-6.61375 -14.7525,-14.75875"
         id="path7673"
         style="fill:#0573ac;fill-opacity:1;fill-rule:nonzero;stroke:none" />
      <path
         d="m -24.08409,458.67978 0,-20.37875 c 0,-9.7575 3.8775,-14.33125 12.5475,-14.33125 1.1075,0 2.18,0.11875 3.20875,0.35625 l 3.25,-9.6975 c -1.7975,-0.47875 -3.55125,-0.71125 -5.16875,-0.71125 -8.06875,0 -10.9475,2.695 -13.8375,5.58625 l 0,-3.93875 -9.505,0 0,43.115 9.505,0"
         id="path7677"
         style="fill:#0573ac;fill-opacity:1;fill-rule:nonzero;stroke:none" />
      <path
         d="m 280.65666,435.47915 c 2.56125,-1.875 3.96125,-4.805 3.9375,-8.2425 0.006,-3.38125 -1.2475,-6.4675 -3.635,-8.6675 -2.385,-2.19875 -5.85375,-3.4875 -10.1575,-3.48625 -4.20875,0 -7.85,1.40375 -10.4275,3.84 -2.58125,2.43375 -4.07375,5.89375 -4.07,9.84125 l 0,0.98 7.1325,0 0,-0.98 c 0,-1.9025 0.55,-3.685 1.6975,-4.97 1.15125,-1.27875 2.91125,-2.1525 5.6675,-2.165 2.39625,0.004 4.09375,0.61875 5.1825,1.57375 1.08125,0.95875 1.6475,2.28 1.65875,4.03375 -0.0262,1.845 -0.565,3.0425 -1.935,3.995 -1.39,0.94625 -3.8275,1.55625 -7.55125,1.5525 l -0.97875,0 0,6.5425 2.8625,0 c 3.97875,0 6.215,0.9 7.43625,2.065 1.22125,1.1575 1.625,2.71375 1.6325,4.4825 -0.025,3.9925 -3.155,7.0225 -8.60125,7.0775 -3.0675,-0.007 -4.97125,-0.79625 -6.205,-2.00125 -1.23375,-1.20625 -1.88375,-2.95625 -2.10625,-5.1175 l -0.09,-0.87875 -7.105,0 0.0713,1.0425 c 0.415,7.3575 5.54375,13.5575 15.265,13.5575 l 0.17,0 c 4.7025,0.001 8.5975,-1.4825 11.32125,-3.95875 2.72625,-2.475 4.2375,-5.935 4.23625,-9.72125 0.035,-4.6725 -1.8975,-8.3825 -5.40875,-10.395"
         id="path7681"
         style="fill:#0573ac;fill-opacity:1;fill-rule:nonzero;stroke:none" />
      <path
         d="m 329.51729,421.8444 c -4.0325,-3.92 -9.8,-6.24625 -16.355,-6.23125 l -19.0325,0 0,42.56625 19.08875,0 c 6.535,0 12.2775,-2.32125 16.29875,-6.2275 4.04625,-3.90125 6.30625,-9.32875 6.29875,-15.05375 0.007,-5.72625 -2.2525,-11.15375 -6.29875,-15.05375 m -5.40625,24.51625 c -2.5175,2.4175 -6.1775,4.07875 -11.22125,4.09 l -10.96875,0 0,-27.11125 10.96875,0 c 5.04375,0.0163 8.70375,1.67875 11.22125,4.0925 2.5025,2.435 3.90375,5.70125 3.91375,9.46625 -0.01,3.7625 -1.41125,7.03 -3.91375,9.4625"
         id="path7685"
         style="fill:#0573ac;fill-opacity:1;fill-rule:nonzero;stroke:none" />
    </g>
  </g>
</svg>
