<?xml version="1.0" standalone="no"?>
<!DOCTYPE svg PUBLIC "-//W3C//DTD SVG 20010904//EN"
 "http://www.w3.org/TR/2001/REC-SVG-20010904/DTD/svg10.dtd">
<svg version="1.0" xmlns="http://www.w3.org/2000/svg"
 width="1484.000000pt" height="551.000000pt" viewBox="0 0 1484.000000 551.000000"
 preserveAspectRatio="xMidYMid meet">
<metadata>
Created by potrace 1.16, written by Peter Selinger 2001-2019
</metadata>
<g transform="translate(0.000000,551.000000) scale(0.100000,-0.100000)"
fill="#000000" stroke="none">
<path d="M0 4066 l0 -1448 328 5 c355 5 390 9 567 69 208 70 395 188 555 348
123 123 210 246 285 403 96 199 135 379 135 617 0 238 -39 418 -135 617 -75
157 -162 280 -285 403 -214 215 -477 351 -780 406 -57 11 -180 17 -377 21
l-293 6 0 -1447z"/>
<path d="M3555 5499 c-345 -27 -645 -167 -896 -418 -214 -215 -336 -441 -400
-741 -18 -86 -22 -137 -22 -280 0 -143 4 -194 22 -280 119 -561 514 -975 1071
-1123 l115 -31 333 -4 332 -4 0 1446 0 1446 -227 -1 c-126 -1 -273 -5 -328
-10z"/>
<path d="M4970 4066 l0 -1446 598 0 c658 0 694 3 882 62 214 68 401 180 564
338 218 211 354 456 418 753 31 147 31 427 0 574 -111 515 -470 921 -957 1082
-219 72 -237 74 -907 79 l-598 4 0 -1446z m1195 979 c489 -79 846 -496 845
-989 -1 -465 -321 -859 -790 -973 -51 -12 -144 -17 -432 -20 l-368 -5 0 1001
0 1001 328 0 c239 0 351 -4 417 -15z"/>
<path d="M9950 4055 l0 -1445 225 0 225 0 0 1445 0 1445 -225 0 -225 0 0
-1445z"/>
<path d="M10750 4055 l0 -1445 225 0 225 0 0 85 c0 47 2 85 5 85 2 0 25 -13
51 -30 67 -42 179 -87 281 -112 131 -32 341 -30 474 5 414 109 701 439 750
862 48 407 -168 814 -531 999 -163 83 -283 111 -475 110 -177 -2 -290 -29
-447 -108 l-108 -54 0 524 0 524 -225 0 -225 0 0 -1445z m1164 139 c252 -61
446 -312 446 -574 0 -165 -58 -299 -181 -421 -89 -90 -179 -138 -301 -163 -96
-20 -129 -20 -226 0 -232 47 -416 228 -468 460 -56 254 73 527 306 648 143 74
266 89 424 50z"/>
<path d="M8515 4606 c-374 -61 -685 -331 -798 -691 -172 -547 150 -1125 708
-1271 137 -36 345 -39 478 -6 356 88 642 361 736 702 81 290 29 601 -139 844
-60 86 -189 214 -273 269 -199 132 -478 192 -712 153z m309 -413 c209 -52 386
-238 432 -451 62 -296 -108 -590 -397 -686 -153 -51 -298 -41 -447 30 -147 71
-279 235 -317 395 -17 76 -19 187 -4 261 29 139 145 306 263 377 157 94 300
117 470 74z"/>
<path d="M12743 4608 c3 -7 185 -417 405 -911 l401 -898 -105 -237 c-91 -205
-111 -242 -148 -278 -73 -68 -151 -80 -250 -39 -33 13 -61 23 -62 22 -7 -7
-174 -389 -174 -397 0 -12 109 -63 207 -96 85 -29 234 -33 323 -9 134 36 271
136 337 246 35 60 1163 2578 1163 2597 0 9 -60 12 -242 10 l-241 -3 -273 -615
c-151 -338 -277 -623 -281 -633 -6 -13 -84 152 -289 615 l-282 633 -247 3
c-197 2 -246 0 -242 -10z"/>
<path d="M3723 1309 c-155 -18 -290 -86 -394 -196 -118 -126 -169 -262 -169
-453 0 -321 182 -565 476 -640 147 -38 339 -23 459 36 65 32 155 102 184 143
l22 30 -72 51 -72 50 -58 -55 c-97 -93 -215 -128 -351 -106 -234 37 -388 230
-388 486 0 205 96 368 267 452 75 37 80 38 187 38 104 0 115 -2 177 -31 36
-17 82 -48 102 -68 20 -20 39 -36 43 -36 4 0 37 23 75 52 77 59 77 62 7 123
-116 98 -309 147 -495 124z"/>
<path d="M4740 655 l0 -655 100 0 100 0 0 655 0 655 -100 0 -100 0 0 -655z"/>
<path d="M5520 655 l0 -655 95 0 95 0 2 525 3 526 340 -526 340 -525 123 0
122 0 0 655 0 655 -100 0 -100 0 -2 -509 -3 -508 -331 506 -330 506 -127 3
-127 3 0 -656z"/>
<path d="M7220 655 l0 -655 440 0 440 0 0 85 0 85 -345 0 -345 0 0 210 0 210
310 0 310 0 0 85 0 85 -310 0 -310 0 0 190 0 190 330 0 330 0 0 85 0 85 -425
0 -425 0 0 -655z"/>
<path d="M8590 655 l0 -655 95 0 95 0 2 527 3 528 99 -250 c54 -138 148 -375
208 -528 l110 -278 65 3 65 3 212 534 211 533 3 -536 2 -536 95 0 95 0 0 655
0 655 -148 0 -149 0 -190 -496 -191 -496 -69 179 c-39 98 -126 321 -194 496
l-123 317 -148 0 -148 0 0 -655z"/>
<path d="M10912 1218 c-205 -469 -515 -1187 -519 -1201 -5 -16 3 -17 102 -15
l107 3 39 95 c22 52 51 123 65 158 l26 62 303 0 303 0 41 -97 c22 -54 52 -125
65 -158 l24 -60 112 -3 c89 -2 111 0 107 10 -3 7 -129 301 -281 653 l-275 640
-89 3 -90 3 -40 -93z m242 -726 c-62 -1 -167 -1 -232 0 l-120 3 117 292 116
292 116 -292 115 -292 -112 -3z"/>
</g>
</svg>
