<?xml version="1.0" encoding="utf-8"?>
<!-- Generator: Adobe Illustrator 16.0.0, SVG Export Plug-In . SVG Version: 6.00 Build 0)  -->
<!DOCTYPE svg PUBLIC "-//W3C//DTD SVG 1.1//EN" "http://www.w3.org/Graphics/SVG/1.1/DTD/svg11.dtd">
<svg version="1.1" id="Layer_1" xmlns="http://www.w3.org/2000/svg" xmlns:xlink="http://www.w3.org/1999/xlink" x="0px" y="0px"
	 width="1000px" height="189.449px" viewBox="0 0 1000 189.449" enable-background="new 0 0 1000 189.449" xml:space="preserve">
<g>
	<polygon fill-rule="evenodd" clip-rule="evenodd" points="154.901,189.449 154.974,52.836 165.646,52.836 232.449,189.294 
		277.006,189.294 343.842,52.836 354.708,52.836 354.705,189.449 408.061,189.449 408.061,0.573 311.937,0.573 254.981,113.507 
		197.475,0.723 101.793,1.021 101.647,189.449 154.901,189.449 	"/>
	<polygon fill-rule="evenodd" clip-rule="evenodd" points="0,189.441 59.759,189.441 59.759,0.573 0,0.573 0,189.441 	"/>
	<path fill-rule="evenodd" clip-rule="evenodd" d="M514.564,0.573L418.57,189.449h63.844l16.703-32.123h119.291l16.273,32.123
		h63.998L602.633,0.573H514.564L514.564,0.573z M561.653,43.508h-5.876l-36.339,71.533h78.149L561.653,43.508L561.653,43.508z"/>
	<polygon fill-rule="evenodd" clip-rule="evenodd" points="789.628,0.573 715.457,0.573 790.322,89.218 700.926,189.449 
		779.99,189.449 840.145,121.205 899.624,189.449 978.433,189.449 889.55,89.133 963.984,0.573 891.134,0.573 839.636,61.938 
		789.628,0.573 	"/>
	<path fill-rule="evenodd" clip-rule="evenodd" d="M1000,14.378c0,7.939-6.439,14.384-14.377,14.384
		c-7.94,0-14.38-6.445-14.38-14.384C971.243,6.45,977.692,0,985.623,0C993.56,0,1000,6.45,1000,14.378L1000,14.378z M997.53,14.378
		c0-6.577-5.33-11.898-11.907-11.898c-6.57,0-11.909,5.326-11.909,11.898c0,6.579,5.339,11.904,11.909,11.904
		C992.2,26.283,997.53,20.958,997.53,14.378L997.53,14.378z M986.715,8.968h-4.202v5.277h4.279c0.525,0,0.93-0.042,1.206-0.128
		c0.283-0.082,0.56-0.228,0.758-0.47c0.31-0.357,0.438-1.059,0.438-2.122c0-0.982-0.111-1.658-0.354-1.998
		c-0.18-0.25-0.465-0.392-0.8-0.458C987.706,9.002,987.257,8.968,986.715,8.968L986.715,8.968z M987.241,6.411
		c2.023,0,3.383,0.395,4.098,1.183c0.638,0.701,0.948,1.856,0.948,3.448c0,1.735-0.242,2.863-0.689,3.41
		c-0.422,0.5-0.957,0.844-1.938,1.021v0.061c0.922,0.09,1.506,0.361,1.938,0.934c0.413,0.561,0.56,1.481,0.56,2.644v2.772h-3.091
		v-2.165c0-0.539-0.026-0.995-0.077-1.348c-0.053-0.353-0.189-0.654-0.397-0.892c-0.215-0.236-0.473-0.395-0.758-0.465
		c-0.293-0.068-0.68-0.102-1.162-0.102h-0.31h-3.849v4.972h-2.996l0.034-15.472H987.241L987.241,6.411z"/>
</g>
</svg>
